# xmcd
# Track frame offsets:
# 150
# 19995
# 35726
# 56594
# 78012
# 97322
# 119189
# 137663
# 152544
# 163326
# 180912
# 194803
# 213633
# 234254
# 245549
# 264017
# 275947
#
# Disc length: 3869 seconds
# Revision: 0
# Processed by: cddbd v1.5.1PL2 Copyright (c) Steve Scherf et al.
# Submitted via: VisiTrax 2.10.0.248 - For more info visit www.synapsa.com
#
DISCID=fb0f1b11
DTITLE=Ester Brohus - The Perfect Way  - Best Of
DYEAR=2006
DGENRE=
TTITLE0=The perfect way
TTITLE1=Lonesome heart
TTITLE2=Cry My heart
TTITLE3=Blinded by you
TTITLE4=Little white lies
TTITLE5=Happy to be lonely
TTITLE6=Closer to you
TTITLE7=Feeling is believing
TTITLE8=Poor pretty little me
TTITLE9=Come to me
TTITLE10=Sentimental talk
TTITLE11=Baby dont worry
TTITLE12=Louise
TTITLE13=Rose
TTITLE14=Do wish you well
TTITLE15=Wrong kind of living
TTITLE16=More than i can say
EXTD=
EXTT0=
EXTT1=
EXTT2=
EXTT3=
EXTT4=
EXTT5=
EXTT6=
EXTT7=
EXTT8=
EXTT9=
EXTT10=
EXTT11=
EXTT12=
EXTT13=
EXTT14=
EXTT15=
EXTT16=
PLAYORDER=
